<svg width="126" height="75" viewBox="0 0 126 75" fill="none" xmlns="http://www.w3.org/2000/svg">
<path d="M55.9088 38.4899H66.7125L70.0891 35.1134H59.2876V29.0348H61.3132L64.6893 25.6607H56.5855V17.5567L53.2115 20.9332V22.9586H47.1328V12.1548L43.7562 15.5313V26.3351H49.8348V32.4112H55.9111V38.4899" fill="#025C75"/>
<path d="M68.0635 14.1802V6.0786L71.4401 2.70215V10.8038H79.5442L76.1652 14.1802H68.0635Z" fill="#025C75"/>
<path d="M59.2876 2.70214H56.5831V10.8037L64.6872 10.8065L61.3106 14.1806H53.2091V12.1576L49.8325 12.1548V9.45267L59.2876 -4.51698e-06V2.70214Z" fill="#025C75"/>
<path d="M79.5442 25.6607V22.9586H82.2438L72.7912 32.4113H70.0891V29.0348H68.0635V20.9332L71.4401 17.5567V25.6607H79.5442Z" fill="#025C75"/>
<path fill-rule="evenodd" clip-rule="evenodd" d="M76.7162 58.8176H79.327L79.2367 51.5363H79.2685L82.9902 58.8176H86.5189V48.1627H83.9225L83.9677 55.3987H83.9371L80.3347 48.1627H76.7178V58.8176" fill="#025C75"/>
<path fill-rule="evenodd" clip-rule="evenodd" d="M90.4134 58.8176H93.2507V50.2703H95.8781V48.1627H87.7861V50.2703H90.4134V58.8176Z" fill="#025C75"/>
<path fill-rule="evenodd" clip-rule="evenodd" d="M97.1393 58.8176H99.979V54.6048H100.573C101.626 54.6048 101.994 55.0625 102.573 56.8936L103.183 58.8176H106.144L105.107 55.9161C104.573 54.6191 104.511 53.8108 103.596 53.5676V53.5366C104.969 53.2147 105.641 52.2682 105.641 50.8496C105.641 49.0185 104.101 48.1626 102.206 48.1626H97.1393V58.8176ZM99.979 50.1773H100.725C101.81 50.1773 102.802 50.3609 102.802 51.3527C102.802 52.5591 101.643 52.5901 100.725 52.5901H99.979V50.1773Z" fill="#025C75"/>
<path fill-rule="evenodd" clip-rule="evenodd" d="M8.94562 58.8176H11.8279L12.6696 56.5431H16.6703L17.462 58.8176H20.5757L16.4701 48.1627H12.9891L8.94562 58.8176ZM15.9979 54.5285H13.3252L14.6985 50.3609H14.7291L15.9979 54.5285Z" fill="#025C75"/>
<path fill-rule="evenodd" clip-rule="evenodd" d="M0 58.8176H4.48708C6.39436 58.8176 8.64029 58.2836 8.64029 55.7349C8.64029 54.4379 7.906 53.6726 6.48736 53.3841V53.353C7.67708 52.9548 8.36382 52.2086 8.36382 50.8639C8.36382 49.0328 6.88566 48.1626 4.90199 48.1626H0V58.8176ZM2.83953 54.2996H3.70974C4.68742 54.2996 5.80076 54.4069 5.80076 55.5656C5.80076 56.6504 4.71599 56.803 3.67892 56.803H2.83953V54.2996ZM2.83953 50.1773H3.66443C4.61103 50.1773 5.52655 50.2703 5.52655 51.2454C5.52655 52.1467 4.56334 52.3756 3.63361 52.3756H2.83953V50.1773Z" fill="#025C75"/>
<path fill-rule="evenodd" clip-rule="evenodd" d="M21.2218 58.8176H23.8325L23.7408 51.5363H23.7714L27.4956 58.8176H31.0219V48.1627H28.4277L28.4729 55.3987H28.441L24.8386 48.1627H21.2216L21.2218 58.8176Z" fill="#025C75"/>
<path fill-rule="evenodd" clip-rule="evenodd" d="M41.454 56.3452C40.6744 56.6504 39.7279 56.8936 38.7979 56.8936C36.7215 56.8936 35.2408 55.6276 35.2408 53.5367C35.2408 51.5506 36.552 50.0867 38.5691 50.0867C39.5443 50.0867 40.4312 50.3299 41.3468 50.833L41.5755 48.5298C40.5528 48.2247 39.4989 47.9791 38.4165 47.9791C34.9022 47.9791 32.3082 49.8268 32.3082 53.5367C32.3082 57.5659 35.5912 59.0012 38.4308 59.0012C39.8804 59.0012 40.7816 58.7724 41.5899 58.5721L41.4536 56.3452" fill="#025C75"/>
<path fill-rule="evenodd" clip-rule="evenodd" d="M41.8713 53.4914C41.8713 56.8793 43.7334 59.0012 47.2144 59.0012C50.6951 59.0012 52.5572 56.8793 52.5572 53.4914C52.5572 50.07 50.7262 47.9791 47.2144 47.9791C43.7048 47.9791 41.8713 50.07 41.8713 53.4914ZM44.8039 53.4914C44.8039 51.6436 45.4906 50.0867 47.2144 50.0867C48.9405 50.0867 49.6271 51.6436 49.6271 53.4914C49.6271 55.2461 48.9405 56.8936 47.2144 56.8936C45.4906 56.8936 44.8039 55.2461 44.8039 53.4914Z" fill="#025C75"/>
<path fill-rule="evenodd" clip-rule="evenodd" d="M66.128 56.3452C65.3508 56.6504 64.4042 56.8936 63.4721 56.8936C61.3978 56.8936 59.9147 55.6276 59.9147 53.5367C59.9147 51.5506 61.2286 50.0867 63.2431 50.0867C64.2208 50.0867 65.1076 50.3299 66.0208 50.833L66.2521 48.5298C65.2293 48.2247 64.1754 47.9791 63.0907 47.9791C59.581 47.9791 56.9847 49.8268 56.9847 53.5367C56.9847 57.5659 60.2654 59.0012 63.1073 59.0012C64.5569 59.0012 65.4558 58.7724 66.2663 58.5721L66.1286 56.3452" fill="#025C75"/>
<path fill-rule="evenodd" clip-rule="evenodd" d="M67.5538 58.8176H75.2309V56.803H70.3934V54.3902H74.804V52.3756H70.3934V50.1773H75.0641V48.1627H67.5538V58.8176Z" fill="#025C75"/>
<path fill-rule="evenodd" clip-rule="evenodd" d="M106.452 58.8176H109.335L110.176 56.5431H114.177L114.968 58.8176H118.082L113.977 48.1627H110.496L106.452 58.8176ZM113.504 54.5285H110.832L112.205 50.3609H112.238L113.504 54.5285Z" fill="#025C75"/>
<path fill-rule="evenodd" clip-rule="evenodd" d="M118.764 58.8176H126V56.71H121.604V48.1627H118.764V58.8176Z" fill="#025C75"/>
<path fill-rule="evenodd" clip-rule="evenodd" d="M23.5988 74.6651H27.4755C31.109 74.6651 33.7816 73.2751 33.7816 69.2911C33.7816 65.1712 31.1852 64.0101 27.4755 64.0101H23.5988V74.6651ZM26.4384 66.1177H27.5374C29.6141 66.1177 30.8491 67.2168 30.8491 69.3388C30.8491 71.4607 29.6594 72.5574 27.5374 72.5574H26.4384V66.1177Z" fill="#025C75"/>
<path fill-rule="evenodd" clip-rule="evenodd" d="M34.3969 69.3388C34.3969 72.7267 36.2613 74.8487 39.7397 74.8487C43.2207 74.8487 45.0828 72.7267 45.0828 69.3388C45.0828 65.9175 43.2518 63.8265 39.7397 63.8265C36.2303 63.8265 34.3969 65.9175 34.3969 69.3388ZM37.3294 69.3388C37.3294 67.491 38.0137 65.9342 39.7397 65.9342C41.4635 65.9342 42.1528 67.491 42.1528 69.3388C42.1528 71.0936 41.4635 72.741 39.7397 72.741C38.0137 72.741 37.3294 71.0936 37.3294 69.3388Z" fill="#025C75"/>
<path fill-rule="evenodd" clip-rule="evenodd" d="M49.9942 74.6651H54.4813C56.3887 74.6651 58.6321 74.131 58.6321 71.5823C58.6321 70.2853 57.9003 69.52 56.4816 69.2315V69.2004C57.6714 68.8023 58.3556 68.056 58.3556 66.7113C58.3556 64.8803 56.8775 64.01 54.8938 64.01H49.9942V74.6651ZM52.8315 70.147H53.7018C54.6792 70.147 55.7926 70.2544 55.7926 71.413C55.7926 72.4979 54.7078 72.6504 53.6707 72.6504H52.8315V70.147ZM52.8315 66.0247H53.6564C54.6028 66.0247 55.5184 66.1177 55.5184 67.0929C55.5184 67.9941 54.5575 68.223 53.6254 68.223H52.8315V66.0247Z" fill="#025C75"/>
<path fill-rule="evenodd" clip-rule="evenodd" d="M59.934 74.6651H62.7735V70.4522H63.3672C64.421 70.4522 64.7857 70.91 65.3675 72.741L65.978 74.6651H68.9391L67.902 71.7635C67.3679 70.4665 67.3059 69.6583 66.3904 69.4151V69.384C67.7637 69.0621 68.4361 68.1156 68.4361 66.697C68.4361 64.8659 66.8935 64.01 65.0003 64.01H59.934V74.6651ZM62.7735 66.0247H63.5199C64.6046 66.0247 65.5963 66.2083 65.5963 67.2002C65.5963 68.4066 64.4376 68.4376 63.5199 68.4376H62.7735V66.0247Z" fill="#025C75"/>
<path fill-rule="evenodd" clip-rule="evenodd" d="M69.2371 74.6651H72.122L72.9611 72.3906H76.9618L77.7558 74.6651H80.8697L76.764 64.0101H73.2829L69.2371 74.6651ZM76.292 70.3759H73.6192L74.9925 66.2083H75.0244L76.2926 70.3759" fill="#025C75"/>
<path d="M90.3969 64.0101H93.2364V74.6651H90.3969V64.0101Z" fill="#025C75"/>
<path fill-rule="evenodd" clip-rule="evenodd" d="M95.1652 74.6651H102.401V72.5574H98.0047V64.0101H95.1652V74.6651Z" fill="#025C75"/>
<path fill-rule="evenodd" clip-rule="evenodd" d="M81.2653 74.3909C82.2119 74.6961 83.4492 74.8487 84.4412 74.8487C86.8063 74.8487 89.1284 74.1 89.1284 71.3367C89.1284 67.491 84.0906 68.6497 84.0906 66.926C84.0906 65.9938 85.2803 65.9342 85.998 65.9342C86.8063 65.9342 87.6311 66.0867 88.3631 66.4229L88.549 64.2247C87.8314 63.9791 86.8229 63.8265 85.8001 63.8265C83.6639 63.8265 81.1603 64.5299 81.1603 67.0929C81.1603 70.972 86.1982 69.7203 86.1982 71.7039C86.1982 72.5574 85.3423 72.741 84.4412 72.741C83.2657 72.741 82.243 72.4359 81.5109 72.0401L81.2653 74.3909Z" fill="#025C75"/>
</svg>
