<svg width="24" height="30" viewBox="0 0 24 30" fill="none" xmlns="http://www.w3.org/2000/svg">
<mask id="mask0_922_9" style="mask-type:alpha" maskUnits="userSpaceOnUse" x="0" y="3" width="24" height="24">
<rect y="3" width="24" height="24" fill="#D9D9D9"/>
</mask>
<g mask="url(#mask0_922_9)">
<path d="M18 16.25L20 18.25V23C20 23.55 19.8042 24.0208 19.4125 24.4125C19.0208 24.8042 18.55 25 18 25H4C3.45 25 2.97917 24.8042 2.5875 24.4125C2.19583 24.0208 2 23.55 2 23V9C2 8.45 2.19583 7.97917 2.5875 7.5875C2.97917 7.19583 3.45 7 4 7H9.5C9.36667 7.3 9.26667 7.62083 9.2 7.9625C9.13333 8.30417 9.08333 8.65 9.05 9H4V23H18V16.25ZM19.3 11.9L22.5 15.1L21.1 16.5L17.9 13.3C17.55 13.5 17.175 13.6667 16.775 13.8C16.375 13.9333 15.95 14 15.5 14C14.25 14 13.1875 13.5625 12.3125 12.6875C11.4375 11.8125 11 10.75 11 9.5C11 8.25 11.4375 7.1875 12.3125 6.3125C13.1875 5.4375 14.25 5 15.5 5C16.75 5 17.8125 5.4375 18.6875 6.3125C19.5625 7.1875 20 8.25 20 9.5C20 9.95 19.9333 10.375 19.8 10.775C19.6667 11.175 19.5 11.55 19.3 11.9ZM15.5 12C16.2 12 16.7917 11.7583 17.275 11.275C17.7583 10.7917 18 10.2 18 9.5C18 8.8 17.7583 8.20833 17.275 7.725C16.7917 7.24167 16.2 7 15.5 7C14.8 7 14.2083 7.24167 13.725 7.725C13.2417 8.20833 13 8.8 13 9.5C13 10.2 13.2417 10.7917 13.725 11.275C14.2083 11.7583 14.8 12 15.5 12ZM4 23V9V16V15.7V23Z" fill="#025C75"/>
</g>
</svg>
