<svg width="51" height="19" viewBox="0 0 51 19" fill="none" xmlns="http://www.w3.org/2000/svg">
<path d="M5.46432 11.5337C6.67942 11.5337 7.64778 10.5085 7.64778 8.99096C7.74173 7.79961 6.85286 6.75795 5.6615 6.66297C5.59647 6.65781 5.53039 6.65575 5.46432 6.65678C4.19451 6.65678 3.52966 7.7769 3.52966 9.12414C3.52863 10.6613 4.43918 11.5337 5.46432 11.5337ZM10.9483 12.9945C10.9483 17.0548 8.97644 18.3638 4.99047 18.3638C3.7062 18.3669 2.42916 18.1563 1.21406 17.7382L1.38441 15.0427C2.40955 15.5971 3.5596 15.8779 4.72515 15.8593C6.69903 15.8593 7.76134 14.9302 7.76134 12.9945V12.4618H7.72314C6.97984 13.5582 5.72551 14.1962 4.40202 14.1507C1.68792 14.1507 0 12.1025 0 9.17782C0 6.23557 1.3844 4.0356 4.4588 4.0356C5.86075 4.04695 7.14605 4.8171 7.81709 6.04768H7.85632V4.26581H10.9483V12.9935V12.9945Z" fill="white"/>
<path d="M24.719 14.1394H28.5192L32.0922 4.31433H28.7732L26.758 11.3138H26.7208L24.7211 4.31433H21.1388L24.719 14.1394Z" fill="white"/>
<path d="M18.9192 9.2294C18.9192 7.75931 18.2781 6.45853 16.713 6.45853C15.1479 6.45853 14.5079 7.75931 14.5079 9.2294C14.5079 10.6809 15.149 11.9817 16.713 11.9817C18.277 11.9817 18.9192 10.6809 18.9192 9.2294ZM11.002 9.2294C11.002 5.96815 13.4703 4.08512 16.713 4.08512C19.9557 4.08512 22.4241 5.97022 22.4241 9.2294C22.4241 12.4721 19.9557 14.3561 16.713 14.3561C13.4703 14.3561 11.002 12.4721 11.002 9.2294Z" fill="white"/>
<path d="M32.4762 12.7508C32.4762 13.6407 31.7545 14.3613 30.8646 14.3613C29.9747 14.3613 29.2542 13.6397 29.2542 12.7498C29.2542 11.8609 29.9747 11.1403 30.8646 11.1393C31.7535 11.1382 32.4751 11.8588 32.4762 12.7477C32.4762 12.7487 32.4762 12.7498 32.4762 12.7508Z" fill="white"/>
<path d="M38.2513 6.69387C37.0073 6.69387 36.1773 7.78612 36.1773 9.25724C36.1773 10.6902 37.1208 11.7659 38.2513 11.7659C39.5335 11.7659 40.3067 10.6902 40.3067 9.1251C40.3067 7.82535 39.5717 6.69387 38.2513 6.69387ZM32.7839 0H36.1979V5.58201H36.2361C37.0527 4.56616 38.3112 4.01075 39.6119 4.09334C42.3271 4.09334 43.8147 6.67529 43.8147 9.0518C43.8147 11.9548 42.2507 14.3695 39.327 14.3695C37.9127 14.4242 36.5943 13.651 35.9522 12.3894H35.914V14.1445H32.7818V0.00103237H32.7839V0Z" fill="white"/>
<path d="M50.8276 7.03353C50.4518 6.93958 50.0647 6.90138 49.6776 6.921C48.0939 6.921 47.2092 8.07106 47.2092 9.99436V14.1434H43.8137V4.31427H46.9088V6.12504H46.947C47.3754 4.89136 48.5451 4.07166 49.85 4.08921C50.2361 4.09541 50.6201 4.13361 51 4.20174L50.8276 7.03353Z" fill="white"/>
</svg>
