<svg width="489" height="217" viewBox="0 0 489 217" fill="none" xmlns="http://www.w3.org/2000/svg">
<rect x="11.5" y="5.5" width="59" height="49" stroke="white"/>
<rect x="11.5" y="54.5" width="59" height="49" stroke="white"/>
<rect x="11.5" y="103.5" width="59" height="49" stroke="white"/>
<rect x="11.5" y="152.5" width="59" height="49" stroke="white"/>
<rect x="70.5" y="5.5" width="59" height="49" stroke="white"/>
<rect x="70.5" y="54.5" width="59" height="49" stroke="white"/>
<rect x="70.5" y="103.5" width="59" height="49" stroke="white"/>
<rect x="70.5" y="152.5" width="59" height="49" stroke="white"/>
<rect x="129.5" y="5.5" width="59" height="49" stroke="white"/>
<rect x="129.5" y="54.5" width="59" height="49" stroke="white"/>
<rect x="129.5" y="103.5" width="59" height="49" stroke="white"/>
<rect x="129.5" y="152.5" width="59" height="49" stroke="white"/>
<rect x="188.5" y="5.5" width="59" height="49" stroke="white"/>
<rect x="188.5" y="54.5" width="59" height="49" stroke="white"/>
<rect x="188.5" y="103.5" width="59" height="49" stroke="white"/>
<rect x="188.5" y="152.5" width="59" height="49" stroke="white"/>
<rect x="247.5" y="5.5" width="59" height="49" stroke="white"/>
<rect x="247.5" y="54.5" width="59" height="49" stroke="white"/>
<rect x="247.5" y="103.5" width="59" height="49" stroke="white"/>
<rect x="247.5" y="152.5" width="59" height="49" stroke="white"/>
<rect x="306.5" y="5.5" width="59" height="49" stroke="white"/>
<rect x="306.5" y="54.5" width="59" height="49" stroke="white"/>
<rect x="306.5" y="103.5" width="59" height="49" stroke="white"/>
<rect x="306.5" y="152.5" width="59" height="49" stroke="white"/>
<rect x="365.5" y="5.5" width="59" height="49" stroke="white"/>
<rect x="365.5" y="54.5" width="59" height="49" stroke="white"/>
<rect x="365.5" y="103.5" width="59" height="49" stroke="white"/>
<rect x="365.5" y="152.5" width="59" height="49" stroke="white"/>
<rect x="424.5" y="5.5" width="59" height="49" stroke="white"/>
<rect x="424.5" y="54.5" width="59" height="49" stroke="white"/>
<rect x="424.5" y="103.5" width="59" height="49" stroke="white"/>
<rect x="424.5" y="152.5" width="59" height="49" stroke="white"/>
<path d="M13.4082 211.53C13.4082 212.697 13.1949 213.593 12.7682 214.22C12.3415 214.84 11.7515 215.15 10.9982 215.15C10.2449 215.15 9.65487 214.84 9.2282 214.22C8.80154 213.593 8.5882 212.697 8.5882 211.53C8.5882 210.95 8.64154 210.437 8.7482 209.99C8.86154 209.537 9.02154 209.157 9.2282 208.85C9.44154 208.543 9.69487 208.31 9.9882 208.15C10.2882 207.99 10.6249 207.91 10.9982 207.91C11.7515 207.91 12.3415 208.223 12.7682 208.85C13.1949 209.47 13.4082 210.363 13.4082 211.53ZM12.1582 211.53C12.1582 211.17 12.1382 210.833 12.0982 210.52C12.0582 210.207 11.9915 209.937 11.8982 209.71C11.8115 209.477 11.6949 209.293 11.5482 209.16C11.4015 209.027 11.2182 208.96 10.9982 208.96C10.7782 208.96 10.5915 209.027 10.4382 209.16C10.2915 209.293 10.1715 209.477 10.0782 209.71C9.99154 209.937 9.9282 210.207 9.8882 210.52C9.85487 210.833 9.8382 211.17 9.8382 211.53C9.8382 211.89 9.85487 212.227 9.8882 212.54C9.9282 212.853 9.99154 213.127 10.0782 213.36C10.1715 213.587 10.2915 213.767 10.4382 213.9C10.5915 214.033 10.7782 214.1 10.9982 214.1C11.2182 214.1 11.4015 214.033 11.5482 213.9C11.6949 213.767 11.8115 213.587 11.8982 213.36C11.9915 213.127 12.0582 212.853 12.0982 212.54C12.1382 212.227 12.1582 211.89 12.1582 211.53Z" fill="#025C75"/>
<path d="M5.56641 201.53C5.56641 202.697 5.35307 203.593 4.92641 204.22C4.49974 204.84 3.90974 205.15 3.15641 205.15C2.40307 205.15 1.81307 204.84 1.38641 204.22C0.95974 203.593 0.746406 202.697 0.746406 201.53C0.746406 200.95 0.79974 200.437 0.906406 199.99C1.01974 199.537 1.17974 199.157 1.38641 198.85C1.59974 198.543 1.85307 198.31 2.14641 198.15C2.44641 197.99 2.78307 197.91 3.15641 197.91C3.90974 197.91 4.49974 198.223 4.92641 198.85C5.35307 199.47 5.56641 200.363 5.56641 201.53ZM4.31641 201.53C4.31641 201.17 4.29641 200.833 4.25641 200.52C4.21641 200.207 4.14974 199.937 4.05641 199.71C3.96974 199.477 3.85307 199.293 3.70641 199.16C3.55974 199.027 3.37641 198.96 3.15641 198.96C2.93641 198.96 2.74974 199.027 2.59641 199.16C2.44974 199.293 2.32974 199.477 2.23641 199.71C2.14974 199.937 2.08641 200.207 2.04641 200.52C2.01307 200.833 1.99641 201.17 1.99641 201.53C1.99641 201.89 2.01307 202.227 2.04641 202.54C2.08641 202.853 2.14974 203.127 2.23641 203.36C2.32974 203.587 2.44974 203.767 2.59641 203.9C2.74974 204.033 2.93641 204.1 3.15641 204.1C3.37641 204.1 3.55974 204.033 3.70641 203.9C3.85307 203.767 3.96974 203.587 4.05641 203.36C4.14974 203.127 4.21641 202.853 4.25641 202.54C4.29641 202.227 4.31641 201.89 4.31641 201.53Z" fill="#025C75"/>
<path d="M1.21641 176.51C1.60307 176.357 1.98974 176.16 2.37641 175.92C2.76974 175.68 3.11641 175.397 3.41641 175.07H4.26641V182H3.05641V176.69C2.87641 176.83 2.64974 176.967 2.37641 177.1C2.10307 177.233 1.83974 177.343 1.58641 177.43L1.21641 176.51Z" fill="#025C75"/>
<path d="M5.12641 150.87C5.12641 151.11 5.07641 151.347 4.97641 151.58C4.87641 151.807 4.74641 152.03 4.58641 152.25C4.43307 152.463 4.25641 152.673 4.05641 152.88C3.85641 153.08 3.65641 153.277 3.45641 153.47C3.34974 153.57 3.22974 153.69 3.09641 153.83C2.96307 153.97 2.83641 154.11 2.71641 154.25C2.59641 154.39 2.49307 154.527 2.40641 154.66C2.31974 154.787 2.27307 154.893 2.26641 154.98H5.34641V156H0.936406C0.92974 155.947 0.926406 155.883 0.926406 155.81C0.926406 155.73 0.926406 155.67 0.926406 155.63C0.926406 155.31 0.976406 155.017 1.07641 154.75C1.18307 154.477 1.31974 154.223 1.48641 153.99C1.65307 153.757 1.83974 153.537 2.04641 153.33C2.25307 153.123 2.45974 152.92 2.66641 152.72C2.82641 152.567 2.97974 152.417 3.12641 152.27C3.27307 152.123 3.39974 151.98 3.50641 151.84C3.61974 151.693 3.70974 151.547 3.77641 151.4C3.84307 151.247 3.87641 151.09 3.87641 150.93C3.87641 150.583 3.77641 150.337 3.57641 150.19C3.37641 150.043 3.13307 149.97 2.84641 149.97C2.65974 149.97 2.48641 149.997 2.32641 150.05C2.16641 150.103 2.02307 150.167 1.89641 150.24C1.77641 150.313 1.66974 150.39 1.57641 150.47C1.48307 150.543 1.41307 150.603 1.36641 150.65L0.766406 149.8C1.04641 149.533 1.37307 149.32 1.74641 149.16C2.12641 148.993 2.53307 148.91 2.96641 148.91C3.70641 148.91 4.24974 149.087 4.59641 149.44C4.94974 149.787 5.12641 150.263 5.12641 150.87Z" fill="#025C75"/>
<path d="M2.67641 132.15C2.49641 132.15 2.30974 132.137 2.11641 132.11C1.92974 132.09 1.74974 132.06 1.57641 132.02C1.40974 131.987 1.25641 131.95 1.11641 131.91C0.976406 131.863 0.86974 131.82 0.796406 131.78L1.03641 130.75C1.17641 130.817 1.37974 130.893 1.64641 130.98C1.91307 131.06 2.24307 131.1 2.63641 131.1C3.16307 131.1 3.54307 131 3.77641 130.8C4.00974 130.593 4.12641 130.32 4.12641 129.98C4.12641 129.76 4.07974 129.577 3.98641 129.43C3.89974 129.283 3.77641 129.167 3.61641 129.08C3.46307 128.987 3.28307 128.923 3.07641 128.89C2.87641 128.85 2.66307 128.83 2.43641 128.83H2.02641V127.85H2.52641C2.67974 127.85 2.83307 127.837 2.98641 127.81C3.14641 127.777 3.28974 127.723 3.41641 127.65C3.54307 127.57 3.64641 127.467 3.72641 127.34C3.80641 127.213 3.84641 127.05 3.84641 126.85C3.84641 126.69 3.81641 126.553 3.75641 126.44C3.69641 126.327 3.61641 126.233 3.51641 126.16C3.42307 126.087 3.31307 126.033 3.18641 126C3.05974 125.967 2.92641 125.95 2.78641 125.95C2.48641 125.95 2.21974 125.997 1.98641 126.09C1.75307 126.177 1.54641 126.277 1.36641 126.39L0.926406 125.49C1.01974 125.43 1.13307 125.367 1.26641 125.3C1.39974 125.233 1.54641 125.17 1.70641 125.11C1.87307 125.05 2.04974 125.003 2.23641 124.97C2.42307 124.93 2.61974 124.91 2.82641 124.91C3.21307 124.91 3.54641 124.957 3.82641 125.05C4.10641 125.143 4.33641 125.277 4.51641 125.45C4.70307 125.617 4.83974 125.817 4.92641 126.05C5.01974 126.277 5.06641 126.527 5.06641 126.8C5.06641 127.12 4.97641 127.407 4.79641 127.66C4.62307 127.913 4.39641 128.107 4.11641 128.24C4.47641 128.367 4.77307 128.577 5.00641 128.87C5.24641 129.163 5.36641 129.54 5.36641 130C5.36641 130.307 5.31307 130.593 5.20641 130.86C5.09974 131.12 4.93641 131.347 4.71641 131.54C4.49641 131.727 4.21641 131.877 3.87641 131.99C3.54307 132.097 3.14307 132.15 2.67641 132.15Z" fill="#025C75"/>
<path d="M3.68641 101.56C3.52641 101.753 3.35974 101.96 3.18641 102.18C3.01974 102.4 2.85641 102.63 2.69641 102.87C2.53641 103.11 2.38307 103.357 2.23641 103.61C2.08974 103.857 1.95641 104.103 1.83641 104.35H3.68641V101.56ZM4.86641 100.07V104.35H5.64641V105.34H4.86641V107H3.68641V105.34H0.646406V104.48C0.77974 104.187 0.956406 103.85 1.17641 103.47C1.40307 103.09 1.65307 102.7 1.92641 102.3C2.19974 101.9 2.48974 101.507 2.79641 101.12C3.10307 100.733 3.40974 100.383 3.71641 100.07H4.86641Z" fill="#025C75"/>
<path d="M4.14641 81.02C4.14641 80.8 4.10307 80.6033 4.01641 80.43C3.92974 80.2567 3.77641 80.11 3.55641 79.99C3.34307 79.87 3.05307 79.78 2.68641 79.72C2.32641 79.66 1.86974 79.63 1.31641 79.63C1.38974 78.99 1.44641 78.3833 1.48641 77.81C1.52641 77.23 1.55974 76.65 1.58641 76.07H5.12641V77.09H2.61641C2.60974 77.2033 2.59974 77.3333 2.58641 77.48C2.57974 77.62 2.56974 77.7633 2.55641 77.91C2.54974 78.0567 2.53974 78.1967 2.52641 78.33C2.51307 78.4633 2.49974 78.5767 2.48641 78.67C3.47307 78.7233 4.19974 78.95 4.66641 79.35C5.13974 79.7433 5.37641 80.2833 5.37641 80.97C5.37641 81.2833 5.32307 81.5733 5.21641 81.84C5.10974 82.1067 4.94641 82.3367 4.72641 82.53C4.50641 82.7233 4.22974 82.8767 3.89641 82.99C3.56307 83.0967 3.17307 83.15 2.72641 83.15C2.54641 83.15 2.36307 83.1367 2.17641 83.11C1.98974 83.0833 1.80974 83.05 1.63641 83.01C1.46974 82.9767 1.31974 82.94 1.18641 82.9C1.05307 82.86 0.953073 82.8233 0.886406 82.79L1.11641 81.77C1.25641 81.8367 1.45641 81.91 1.71641 81.99C1.98307 82.0633 2.30641 82.1 2.68641 82.1C2.94641 82.1 3.16974 82.0733 3.35641 82.02C3.54307 81.96 3.69307 81.88 3.80641 81.78C3.92641 81.68 4.01307 81.5667 4.06641 81.44C4.11974 81.3067 4.14641 81.1667 4.14641 81.02Z" fill="#025C75"/>
<path d="M3.13641 54.63C2.94307 54.63 2.75641 54.6467 2.57641 54.68C2.39641 54.7133 2.23307 54.7633 2.08641 54.83C2.07974 54.8833 2.07307 54.9433 2.06641 55.01C2.06641 55.07 2.06641 55.13 2.06641 55.19C2.06641 55.4567 2.08307 55.71 2.11641 55.95C2.15641 56.1833 2.21974 56.39 2.30641 56.57C2.39974 56.7433 2.52307 56.8833 2.67641 56.99C2.83641 57.09 3.03307 57.14 3.26641 57.14C3.45974 57.14 3.62307 57.1 3.75641 57.02C3.89641 56.94 4.00974 56.8367 4.09641 56.71C4.18307 56.5833 4.24641 56.4467 4.28641 56.3C4.32641 56.1467 4.34641 56 4.34641 55.86C4.34641 55.46 4.24974 55.1567 4.05641 54.95C3.86307 54.7367 3.55641 54.63 3.13641 54.63ZM3.28641 53.67C3.69974 53.67 4.04974 53.73 4.33641 53.85C4.62974 53.9633 4.86641 54.12 5.04641 54.32C5.22641 54.52 5.35641 54.7533 5.43641 55.02C5.52307 55.28 5.56641 55.5533 5.56641 55.84C5.56641 56.1 5.51974 56.3667 5.42641 56.64C5.33974 56.9133 5.19974 57.1633 5.00641 57.39C4.81974 57.61 4.58307 57.7933 4.29641 57.94C4.00974 58.08 3.66974 58.15 3.27641 58.15C2.48307 58.15 1.87641 57.89 1.45641 57.37C1.04307 56.8433 0.836406 56.12 0.836406 55.2C0.836406 54.5333 0.933073 53.9433 1.12641 53.43C1.32641 52.91 1.60641 52.4733 1.96641 52.12C2.33307 51.7667 2.77307 51.5 3.28641 51.32C3.80641 51.1333 4.38974 51.0367 5.03641 51.03L5.10641 52.03C4.74641 52.0367 4.40974 52.0767 4.09641 52.15C3.78307 52.2167 3.50307 52.3233 3.25641 52.47C3.00974 52.6167 2.79641 52.8067 2.61641 53.04C2.44307 53.2733 2.30974 53.56 2.21641 53.9C2.54307 53.7467 2.89974 53.67 3.28641 53.67Z" fill="#025C75"/>
<path d="M1.85641 33C1.89641 32.4933 1.98641 31.96 2.12641 31.4C2.26641 30.84 2.43641 30.2967 2.63641 29.77C2.84307 29.2367 3.06641 28.74 3.30641 28.28C3.55307 27.8133 3.79641 27.4233 4.03641 27.11H0.846406V26.07H5.47641V26.99C5.25641 27.2367 5.01641 27.5733 4.75641 28C4.49641 28.4267 4.24974 28.91 4.01641 29.45C3.78307 29.9833 3.57974 30.5567 3.40641 31.17C3.23974 31.7833 3.13641 32.3933 3.09641 33H1.85641Z" fill="#025C75"/>
<path d="M5.51641 7.14C5.51641 7.42667 5.46641 7.69333 5.36641 7.94C5.26641 8.18667 5.11641 8.4 4.91641 8.58C4.71641 8.76 4.46641 8.9 4.16641 9C3.87307 9.1 3.53307 9.15 3.14641 9.15C2.69307 9.15 2.31641 9.08667 2.01641 8.96C1.71641 8.83333 1.47641 8.67333 1.29641 8.48C1.11641 8.28667 0.986406 8.08 0.906406 7.86C0.833073 7.63333 0.796406 7.42 0.796406 7.22C0.796406 7.02 0.823073 6.83667 0.876406 6.67C0.936406 6.49667 1.01641 6.34 1.11641 6.2C1.21641 6.05333 1.32974 5.92 1.45641 5.8C1.58307 5.68 1.71641 5.57333 1.85641 5.48C1.54974 5.26667 1.31974 5.03667 1.16641 4.79C1.01974 4.53667 0.946406 4.23 0.946406 3.87C0.946406 3.61 0.996406 3.36333 1.09641 3.13C1.20307 2.89 1.35307 2.68 1.54641 2.5C1.73974 2.32 1.97307 2.17667 2.24641 2.07C2.51974 1.96333 2.82307 1.91 3.15641 1.91C3.54974 1.91 3.88307 1.96667 4.15641 2.08C4.43641 2.19333 4.66307 2.34 4.83641 2.52C5.01641 2.7 5.14641 2.9 5.22641 3.12C5.30641 3.34 5.34641 3.55333 5.34641 3.76C5.34641 4.12667 5.24641 4.45333 5.04641 4.74C4.84641 5.02 4.61641 5.24333 4.35641 5.41C4.74974 5.62333 5.03974 5.87 5.22641 6.15C5.41974 6.43 5.51641 6.76 5.51641 7.14ZM1.98641 7.2C1.98641 7.3 2.00641 7.40667 2.04641 7.52C2.08641 7.63333 2.15307 7.73667 2.24641 7.83C2.33974 7.92333 2.45974 8.00333 2.60641 8.07C2.75307 8.13 2.93641 8.16 3.15641 8.16C3.35641 8.16 3.52974 8.13333 3.67641 8.08C3.82307 8.02667 3.94307 7.95667 4.03641 7.87C4.12974 7.77667 4.19974 7.67333 4.24641 7.56C4.29307 7.44 4.31641 7.32 4.31641 7.2C4.31641 7.01333 4.27974 6.85 4.20641 6.71C4.13307 6.57 4.02641 6.45 3.88641 6.35C3.75307 6.24333 3.59307 6.15333 3.40641 6.08C3.21974 6 3.01307 5.93 2.78641 5.87C2.54641 6.02333 2.35307 6.21 2.20641 6.43C2.05974 6.64333 1.98641 6.9 1.98641 7.2ZM4.16641 3.78C4.16641 3.69333 4.14641 3.6 4.10641 3.5C4.07307 3.39333 4.01307 3.29667 3.92641 3.21C3.84641 3.12333 3.74307 3.05 3.61641 2.99C3.48974 2.93 3.33641 2.9 3.15641 2.9C2.97641 2.9 2.81974 2.93 2.68641 2.99C2.55974 3.04333 2.45641 3.11667 2.37641 3.21C2.29641 3.29667 2.23641 3.39333 2.19641 3.5C2.15641 3.6 2.13641 3.7 2.13641 3.8C2.13641 4.05333 2.22974 4.29333 2.41641 4.52C2.60974 4.74667 2.92974 4.92667 3.37641 5.06C3.62307 4.90667 3.81641 4.73333 3.95641 4.54C4.09641 4.34 4.16641 4.08667 4.16641 3.78Z" fill="#025C75"/>
<path d="M159.988 213.02C159.988 212.8 159.945 212.603 159.858 212.43C159.772 212.257 159.618 212.11 159.398 211.99C159.185 211.87 158.895 211.78 158.528 211.72C158.168 211.66 157.712 211.63 157.158 211.63C157.232 210.99 157.288 210.383 157.328 209.81C157.368 209.23 157.402 208.65 157.428 208.07H160.968V209.09H158.458C158.452 209.203 158.442 209.333 158.428 209.48C158.422 209.62 158.412 209.763 158.398 209.91C158.392 210.057 158.382 210.197 158.368 210.33C158.355 210.463 158.342 210.577 158.328 210.67C159.315 210.723 160.042 210.95 160.508 211.35C160.982 211.743 161.218 212.283 161.218 212.97C161.218 213.283 161.165 213.573 161.058 213.84C160.952 214.107 160.788 214.337 160.568 214.53C160.348 214.723 160.072 214.877 159.738 214.99C159.405 215.097 159.015 215.15 158.568 215.15C158.388 215.15 158.205 215.137 158.018 215.11C157.832 215.083 157.652 215.05 157.478 215.01C157.312 214.977 157.162 214.94 157.028 214.9C156.895 214.86 156.795 214.823 156.728 214.79L156.958 213.77C157.098 213.837 157.298 213.91 157.558 213.99C157.825 214.063 158.148 214.1 158.528 214.1C158.788 214.1 159.012 214.073 159.198 214.02C159.385 213.96 159.535 213.88 159.648 213.78C159.768 213.68 159.855 213.567 159.908 213.44C159.962 213.307 159.988 213.167 159.988 213.02Z" fill="#025C75"/>
<path d="M277.028 211.41C277.222 211.41 277.412 211.393 277.598 211.36C277.785 211.32 277.945 211.263 278.078 211.19C278.085 211.117 278.088 211.053 278.088 211C278.088 210.947 278.088 210.9 278.088 210.86C278.088 210.593 278.068 210.343 278.028 210.11C277.995 209.87 277.932 209.663 277.838 209.49C277.752 209.31 277.628 209.17 277.468 209.07C277.315 208.963 277.122 208.91 276.888 208.91C276.695 208.91 276.528 208.95 276.388 209.03C276.255 209.11 276.145 209.213 276.058 209.34C275.972 209.467 275.908 209.603 275.868 209.75C275.828 209.897 275.808 210.04 275.808 210.18C275.808 210.587 275.905 210.893 276.098 211.1C276.298 211.307 276.608 211.41 277.028 211.41ZM277.978 212.14C277.818 212.213 277.642 212.27 277.448 212.31C277.255 212.35 277.068 212.37 276.888 212.37C276.475 212.37 276.122 212.317 275.828 212.21C275.542 212.097 275.305 211.943 275.118 211.75C274.938 211.55 274.805 211.32 274.718 211.06C274.632 210.8 274.588 210.52 274.588 210.22C274.588 209.96 274.632 209.697 274.718 209.43C274.805 209.157 274.942 208.907 275.128 208.68C275.315 208.453 275.552 208.27 275.838 208.13C276.125 207.983 276.465 207.91 276.858 207.91C277.672 207.91 278.285 208.173 278.698 208.7C279.118 209.22 279.328 209.957 279.328 210.91C279.328 212.257 278.982 213.277 278.288 213.97C277.595 214.663 276.532 215.013 275.098 215.02L275.048 214.01C275.448 214.01 275.808 213.977 276.128 213.91C276.455 213.843 276.738 213.737 276.978 213.59C277.225 213.443 277.432 213.253 277.598 213.02C277.765 212.78 277.892 212.487 277.978 212.14Z" fill="#025C75"/>
<path d="M390.216 209.51C390.603 209.357 390.99 209.16 391.376 208.92C391.77 208.68 392.116 208.397 392.416 208.07H393.266V215H392.056V209.69C391.876 209.83 391.65 209.967 391.376 210.1C391.103 210.233 390.84 210.343 390.586 210.43L390.216 209.51ZM397.36 215.15C397.18 215.15 396.993 215.137 396.8 215.11C396.613 215.09 396.433 215.06 396.26 215.02C396.093 214.987 395.94 214.95 395.8 214.91C395.66 214.863 395.553 214.82 395.48 214.78L395.72 213.75C395.86 213.817 396.063 213.893 396.33 213.98C396.597 214.06 396.927 214.1 397.32 214.1C397.847 214.1 398.227 214 398.46 213.8C398.693 213.593 398.81 213.32 398.81 212.98C398.81 212.76 398.763 212.577 398.67 212.43C398.583 212.283 398.46 212.167 398.3 212.08C398.147 211.987 397.967 211.923 397.76 211.89C397.56 211.85 397.347 211.83 397.12 211.83H396.71V210.85H397.21C397.363 210.85 397.517 210.837 397.67 210.81C397.83 210.777 397.973 210.723 398.1 210.65C398.227 210.57 398.33 210.467 398.41 210.34C398.49 210.213 398.53 210.05 398.53 209.85C398.53 209.69 398.5 209.553 398.44 209.44C398.38 209.327 398.3 209.233 398.2 209.16C398.107 209.087 397.997 209.033 397.87 209C397.743 208.967 397.61 208.95 397.47 208.95C397.17 208.95 396.903 208.997 396.67 209.09C396.437 209.177 396.23 209.277 396.05 209.39L395.61 208.49C395.703 208.43 395.817 208.367 395.95 208.3C396.083 208.233 396.23 208.17 396.39 208.11C396.557 208.05 396.733 208.003 396.92 207.97C397.107 207.93 397.303 207.91 397.51 207.91C397.897 207.91 398.23 207.957 398.51 208.05C398.79 208.143 399.02 208.277 399.2 208.45C399.387 208.617 399.523 208.817 399.61 209.05C399.703 209.277 399.75 209.527 399.75 209.8C399.75 210.12 399.66 210.407 399.48 210.66C399.307 210.913 399.08 211.107 398.8 211.24C399.16 211.367 399.457 211.577 399.69 211.87C399.93 212.163 400.05 212.54 400.05 213C400.05 213.307 399.997 213.593 399.89 213.86C399.783 214.12 399.62 214.347 399.4 214.54C399.18 214.727 398.9 214.877 398.56 214.99C398.227 215.097 397.827 215.15 397.36 215.15Z" fill="#025C75"/>
<path d="M39.0582 209.51C39.4449 209.357 39.8315 209.16 40.2182 208.92C40.6115 208.68 40.9582 208.397 41.2582 208.07H42.1082V215H40.8982V209.69C40.7182 209.83 40.4915 209.967 40.2182 210.1C39.9449 210.233 39.6815 210.343 39.4282 210.43L39.0582 209.51Z" fill="#025C75"/>
<path d="M187.978 211.63C187.785 211.63 187.598 211.647 187.418 211.68C187.238 211.713 187.075 211.763 186.928 211.83C186.922 211.883 186.915 211.943 186.908 212.01C186.908 212.07 186.908 212.13 186.908 212.19C186.908 212.457 186.925 212.71 186.958 212.95C186.998 213.183 187.062 213.39 187.148 213.57C187.242 213.743 187.365 213.883 187.518 213.99C187.678 214.09 187.875 214.14 188.108 214.14C188.302 214.14 188.465 214.1 188.598 214.02C188.738 213.94 188.852 213.837 188.938 213.71C189.025 213.583 189.088 213.447 189.128 213.3C189.168 213.147 189.188 213 189.188 212.86C189.188 212.46 189.092 212.157 188.898 211.95C188.705 211.737 188.398 211.63 187.978 211.63ZM188.128 210.67C188.542 210.67 188.892 210.73 189.178 210.85C189.472 210.963 189.708 211.12 189.888 211.32C190.068 211.52 190.198 211.753 190.278 212.02C190.365 212.28 190.408 212.553 190.408 212.84C190.408 213.1 190.362 213.367 190.268 213.64C190.182 213.913 190.042 214.163 189.848 214.39C189.662 214.61 189.425 214.793 189.138 214.94C188.852 215.08 188.512 215.15 188.118 215.15C187.325 215.15 186.718 214.89 186.298 214.37C185.885 213.843 185.678 213.12 185.678 212.2C185.678 211.533 185.775 210.943 185.968 210.43C186.168 209.91 186.448 209.473 186.808 209.12C187.175 208.767 187.615 208.5 188.128 208.32C188.648 208.133 189.232 208.037 189.878 208.03L189.948 209.03C189.588 209.037 189.252 209.077 188.938 209.15C188.625 209.217 188.345 209.323 188.098 209.47C187.852 209.617 187.638 209.807 187.458 210.04C187.285 210.273 187.152 210.56 187.058 210.9C187.385 210.747 187.742 210.67 188.128 210.67Z" fill="#025C75"/>
<path d="M301.216 209.51C301.603 209.357 301.99 209.16 302.376 208.92C302.77 208.68 303.116 208.397 303.416 208.07H304.266V215H303.056V209.69C302.876 209.83 302.65 209.967 302.376 210.1C302.103 210.233 301.84 210.343 301.586 210.43L301.216 209.51ZM311.25 211.53C311.25 212.697 311.037 213.593 310.61 214.22C310.183 214.84 309.593 215.15 308.84 215.15C308.087 215.15 307.497 214.84 307.07 214.22C306.643 213.593 306.43 212.697 306.43 211.53C306.43 210.95 306.483 210.437 306.59 209.99C306.703 209.537 306.863 209.157 307.07 208.85C307.283 208.543 307.537 208.31 307.83 208.15C308.13 207.99 308.467 207.91 308.84 207.91C309.593 207.91 310.183 208.223 310.61 208.85C311.037 209.47 311.25 210.363 311.25 211.53ZM310 211.53C310 211.17 309.98 210.833 309.94 210.52C309.9 210.207 309.833 209.937 309.74 209.71C309.653 209.477 309.537 209.293 309.39 209.16C309.243 209.027 309.06 208.96 308.84 208.96C308.62 208.96 308.433 209.027 308.28 209.16C308.133 209.293 308.013 209.477 307.92 209.71C307.833 209.937 307.77 210.207 307.73 210.52C307.697 210.833 307.68 211.17 307.68 211.53C307.68 211.89 307.697 212.227 307.73 212.54C307.77 212.853 307.833 213.127 307.92 213.36C308.013 213.587 308.133 213.767 308.28 213.9C308.433 214.033 308.62 214.1 308.84 214.1C309.06 214.1 309.243 214.033 309.39 213.9C309.537 213.767 309.653 213.587 309.74 213.36C309.833 213.127 309.9 212.853 309.94 212.54C309.98 212.227 310 211.89 310 211.53Z" fill="#025C75"/>
<path d="M419.216 209.51C419.603 209.357 419.99 209.16 420.376 208.92C420.77 208.68 421.116 208.397 421.416 208.07H422.266V215H421.056V209.69C420.876 209.83 420.65 209.967 420.376 210.1C420.103 210.233 419.84 210.343 419.586 210.43L419.216 209.51ZM427.37 209.56C427.21 209.753 427.043 209.96 426.87 210.18C426.703 210.4 426.54 210.63 426.38 210.87C426.22 211.11 426.067 211.357 425.92 211.61C425.773 211.857 425.64 212.103 425.52 212.35H427.37V209.56ZM428.55 208.07V212.35H429.33V213.34H428.55V215H427.37V213.34H424.33V212.48C424.463 212.187 424.64 211.85 424.86 211.47C425.087 211.09 425.337 210.7 425.61 210.3C425.883 209.9 426.173 209.507 426.48 209.12C426.787 208.733 427.093 208.383 427.4 208.07H428.55Z" fill="#025C75"/>
<path d="M72.9682 209.87C72.9682 210.11 72.9182 210.347 72.8182 210.58C72.7182 210.807 72.5882 211.03 72.4282 211.25C72.2749 211.463 72.0982 211.673 71.8982 211.88C71.6982 212.08 71.4982 212.277 71.2982 212.47C71.1915 212.57 71.0715 212.69 70.9382 212.83C70.8049 212.97 70.6782 213.11 70.5582 213.25C70.4382 213.39 70.3349 213.527 70.2482 213.66C70.1615 213.787 70.1149 213.893 70.1082 213.98H73.1882V215H68.7782C68.7715 214.947 68.7682 214.883 68.7682 214.81C68.7682 214.73 68.7682 214.67 68.7682 214.63C68.7682 214.31 68.8182 214.017 68.9182 213.75C69.0249 213.477 69.1615 213.223 69.3282 212.99C69.4949 212.757 69.6815 212.537 69.8882 212.33C70.0949 212.123 70.3015 211.92 70.5082 211.72C70.6682 211.567 70.8215 211.417 70.9682 211.27C71.1149 211.123 71.2415 210.98 71.3482 210.84C71.4615 210.693 71.5515 210.547 71.6182 210.4C71.6849 210.247 71.7182 210.09 71.7182 209.93C71.7182 209.583 71.6182 209.337 71.4182 209.19C71.2182 209.043 70.9749 208.97 70.6882 208.97C70.5015 208.97 70.3282 208.997 70.1682 209.05C70.0082 209.103 69.8649 209.167 69.7382 209.24C69.6182 209.313 69.5115 209.39 69.4182 209.47C69.3249 209.543 69.2549 209.603 69.2082 209.65L68.6082 208.8C68.8882 208.533 69.2149 208.32 69.5882 208.16C69.9682 207.993 70.3749 207.91 70.8082 207.91C71.5482 207.91 72.0915 208.087 72.4382 208.44C72.7915 208.787 72.9682 209.263 72.9682 209.87Z" fill="#025C75"/>
<path d="M216.698 215C216.738 214.493 216.828 213.96 216.968 213.4C217.108 212.84 217.278 212.297 217.478 211.77C217.685 211.237 217.908 210.74 218.148 210.28C218.395 209.813 218.638 209.423 218.878 209.11H215.688V208.07H220.318V208.99C220.098 209.237 219.858 209.573 219.598 210C219.338 210.427 219.092 210.91 218.858 211.45C218.625 211.983 218.422 212.557 218.248 213.17C218.082 213.783 217.978 214.393 217.938 215H216.698Z" fill="#025C75"/>
<path d="M331.216 209.51C331.603 209.357 331.99 209.16 332.376 208.92C332.77 208.68 333.116 208.397 333.416 208.07H334.266V215H333.056V209.69C332.876 209.83 332.65 209.967 332.376 210.1C332.103 210.233 331.84 210.343 331.586 210.43L331.216 209.51ZM336.9 209.51C337.287 209.357 337.673 209.16 338.06 208.92C338.453 208.68 338.8 208.397 339.1 208.07H339.95V215H338.74V209.69C338.56 209.83 338.333 209.967 338.06 210.1C337.787 210.233 337.523 210.343 337.27 210.43L336.9 209.51Z" fill="#025C75"/>
<path d="M449.216 209.51C449.603 209.357 449.99 209.16 450.376 208.92C450.77 208.68 451.116 208.397 451.416 208.07H452.266V215H451.056V209.69C450.876 209.83 450.65 209.967 450.376 210.1C450.103 210.233 449.84 210.343 449.586 210.43L449.216 209.51ZM457.83 213.02C457.83 212.8 457.787 212.603 457.7 212.43C457.613 212.257 457.46 212.11 457.24 211.99C457.027 211.87 456.737 211.78 456.37 211.72C456.01 211.66 455.553 211.63 455 211.63C455.073 210.99 455.13 210.383 455.17 209.81C455.21 209.23 455.243 208.65 455.27 208.07H458.81V209.09H456.3C456.293 209.203 456.283 209.333 456.27 209.48C456.263 209.62 456.253 209.763 456.24 209.91C456.233 210.057 456.223 210.197 456.21 210.33C456.197 210.463 456.183 210.577 456.17 210.67C457.157 210.723 457.883 210.95 458.35 211.35C458.823 211.743 459.06 212.283 459.06 212.97C459.06 213.283 459.007 213.573 458.9 213.84C458.793 214.107 458.63 214.337 458.41 214.53C458.19 214.723 457.913 214.877 457.58 214.99C457.247 215.097 456.857 215.15 456.41 215.15C456.23 215.15 456.047 215.137 455.86 215.11C455.673 215.083 455.493 215.05 455.32 215.01C455.153 214.977 455.003 214.94 454.87 214.9C454.737 214.86 454.637 214.823 454.57 214.79L454.8 213.77C454.94 213.837 455.14 213.91 455.4 213.99C455.667 214.063 455.99 214.1 456.37 214.1C456.63 214.1 456.853 214.073 457.04 214.02C457.227 213.96 457.377 213.88 457.49 213.78C457.61 213.68 457.697 213.567 457.75 213.44C457.803 213.307 457.83 213.167 457.83 213.02Z" fill="#025C75"/>
<path d="M99.5182 215.15C99.3382 215.15 99.1515 215.137 98.9582 215.11C98.7715 215.09 98.5915 215.06 98.4182 215.02C98.2515 214.987 98.0982 214.95 97.9582 214.91C97.8182 214.863 97.7115 214.82 97.6382 214.78L97.8782 213.75C98.0182 213.817 98.2215 213.893 98.4882 213.98C98.7549 214.06 99.0849 214.1 99.4782 214.1C100.005 214.1 100.385 214 100.618 213.8C100.852 213.593 100.968 213.32 100.968 212.98C100.968 212.76 100.922 212.577 100.828 212.43C100.742 212.283 100.618 212.167 100.458 212.08C100.305 211.987 100.125 211.923 99.9182 211.89C99.7182 211.85 99.5049 211.83 99.2782 211.83H98.8682V210.85H99.3682C99.5215 210.85 99.6749 210.837 99.8282 210.81C99.9882 210.777 100.132 210.723 100.258 210.65C100.385 210.57 100.488 210.467 100.568 210.34C100.648 210.213 100.688 210.05 100.688 209.85C100.688 209.69 100.658 209.553 100.598 209.44C100.538 209.327 100.458 209.233 100.358 209.16C100.265 209.087 100.155 209.033 100.028 209C99.9015 208.967 99.7682 208.95 99.6282 208.95C99.3282 208.95 99.0615 208.997 98.8282 209.09C98.5949 209.177 98.3882 209.277 98.2082 209.39L97.7682 208.49C97.8615 208.43 97.9749 208.367 98.1082 208.3C98.2415 208.233 98.3882 208.17 98.5482 208.11C98.7149 208.05 98.8915 208.003 99.0782 207.97C99.2649 207.93 99.4615 207.91 99.6682 207.91C100.055 207.91 100.388 207.957 100.668 208.05C100.948 208.143 101.178 208.277 101.358 208.45C101.545 208.617 101.682 208.817 101.768 209.05C101.862 209.277 101.908 209.527 101.908 209.8C101.908 210.12 101.818 210.407 101.638 210.66C101.465 210.913 101.238 211.107 100.958 211.24C101.318 211.367 101.615 211.577 101.848 211.87C102.088 212.163 102.208 212.54 102.208 213C102.208 213.307 102.155 213.593 102.048 213.86C101.942 214.12 101.778 214.347 101.558 214.54C101.338 214.727 101.058 214.877 100.718 214.99C100.385 215.097 99.9849 215.15 99.5182 215.15Z" fill="#025C75"/>
<path d="M249.358 213.14C249.358 213.427 249.308 213.693 249.208 213.94C249.108 214.187 248.958 214.4 248.758 214.58C248.558 214.76 248.308 214.9 248.008 215C247.715 215.1 247.375 215.15 246.988 215.15C246.535 215.15 246.158 215.087 245.858 214.96C245.558 214.833 245.318 214.673 245.138 214.48C244.958 214.287 244.828 214.08 244.748 213.86C244.675 213.633 244.638 213.42 244.638 213.22C244.638 213.02 244.665 212.837 244.718 212.67C244.778 212.497 244.858 212.34 244.958 212.2C245.058 212.053 245.172 211.92 245.298 211.8C245.425 211.68 245.558 211.573 245.698 211.48C245.392 211.267 245.162 211.037 245.008 210.79C244.862 210.537 244.788 210.23 244.788 209.87C244.788 209.61 244.838 209.363 244.938 209.13C245.045 208.89 245.195 208.68 245.388 208.5C245.582 208.32 245.815 208.177 246.088 208.07C246.362 207.963 246.665 207.91 246.998 207.91C247.392 207.91 247.725 207.967 247.998 208.08C248.278 208.193 248.505 208.34 248.678 208.52C248.858 208.7 248.988 208.9 249.068 209.12C249.148 209.34 249.188 209.553 249.188 209.76C249.188 210.127 249.088 210.453 248.888 210.74C248.688 211.02 248.458 211.243 248.198 211.41C248.592 211.623 248.882 211.87 249.068 212.15C249.262 212.43 249.358 212.76 249.358 213.14ZM245.828 213.2C245.828 213.3 245.848 213.407 245.888 213.52C245.928 213.633 245.995 213.737 246.088 213.83C246.182 213.923 246.302 214.003 246.448 214.07C246.595 214.13 246.778 214.16 246.998 214.16C247.198 214.16 247.372 214.133 247.518 214.08C247.665 214.027 247.785 213.957 247.878 213.87C247.972 213.777 248.042 213.673 248.088 213.56C248.135 213.44 248.158 213.32 248.158 213.2C248.158 213.013 248.122 212.85 248.048 212.71C247.975 212.57 247.868 212.45 247.728 212.35C247.595 212.243 247.435 212.153 247.248 212.08C247.062 212 246.855 211.93 246.628 211.87C246.388 212.023 246.195 212.21 246.048 212.43C245.902 212.643 245.828 212.9 245.828 213.2ZM248.008 209.78C248.008 209.693 247.988 209.6 247.948 209.5C247.915 209.393 247.855 209.297 247.768 209.21C247.688 209.123 247.585 209.05 247.458 208.99C247.332 208.93 247.178 208.9 246.998 208.9C246.818 208.9 246.662 208.93 246.528 208.99C246.402 209.043 246.298 209.117 246.218 209.21C246.138 209.297 246.078 209.393 246.038 209.5C245.998 209.6 245.978 209.7 245.978 209.8C245.978 210.053 246.072 210.293 246.258 210.52C246.452 210.747 246.772 210.927 247.218 211.06C247.465 210.907 247.658 210.733 247.798 210.54C247.938 210.34 248.008 210.087 248.008 209.78Z" fill="#025C75"/>
<path d="M360.216 209.51C360.603 209.357 360.99 209.16 361.376 208.92C361.77 208.68 362.116 208.397 362.416 208.07H363.266V215H362.056V209.69C361.876 209.83 361.65 209.967 361.376 210.1C361.103 210.233 360.84 210.343 360.586 210.43L360.216 209.51ZM369.81 209.87C369.81 210.11 369.76 210.347 369.66 210.58C369.56 210.807 369.43 211.03 369.27 211.25C369.117 211.463 368.94 211.673 368.74 211.88C368.54 212.08 368.34 212.277 368.14 212.47C368.033 212.57 367.913 212.69 367.78 212.83C367.647 212.97 367.52 213.11 367.4 213.25C367.28 213.39 367.177 213.527 367.09 213.66C367.003 213.787 366.957 213.893 366.95 213.98H370.03V215H365.62C365.613 214.947 365.61 214.883 365.61 214.81C365.61 214.73 365.61 214.67 365.61 214.63C365.61 214.31 365.66 214.017 365.76 213.75C365.867 213.477 366.003 213.223 366.17 212.99C366.337 212.757 366.523 212.537 366.73 212.33C366.937 212.123 367.143 211.92 367.35 211.72C367.51 211.567 367.663 211.417 367.81 211.27C367.957 211.123 368.083 210.98 368.19 210.84C368.303 210.693 368.393 210.547 368.46 210.4C368.527 210.247 368.56 210.09 368.56 209.93C368.56 209.583 368.46 209.337 368.26 209.19C368.06 209.043 367.817 208.97 367.53 208.97C367.343 208.97 367.17 208.997 367.01 209.05C366.85 209.103 366.707 209.167 366.58 209.24C366.46 209.313 366.353 209.39 366.26 209.47C366.167 209.543 366.097 209.603 366.05 209.65L365.45 208.8C365.73 208.533 366.057 208.32 366.43 208.16C366.81 207.993 367.217 207.91 367.65 207.91C368.39 207.91 368.933 208.087 369.28 208.44C369.633 208.787 369.81 209.263 369.81 209.87Z" fill="#025C75"/>
<path d="M478.216 209.51C478.603 209.357 478.99 209.16 479.376 208.92C479.77 208.68 480.116 208.397 480.416 208.07H481.266V215H480.056V209.69C479.876 209.83 479.65 209.967 479.376 210.1C479.103 210.233 478.84 210.343 478.586 210.43L478.216 209.51ZM485.82 211.63C485.627 211.63 485.44 211.647 485.26 211.68C485.08 211.713 484.917 211.763 484.77 211.83C484.763 211.883 484.757 211.943 484.75 212.01C484.75 212.07 484.75 212.13 484.75 212.19C484.75 212.457 484.767 212.71 484.8 212.95C484.84 213.183 484.903 213.39 484.99 213.57C485.083 213.743 485.207 213.883 485.36 213.99C485.52 214.09 485.717 214.14 485.95 214.14C486.143 214.14 486.307 214.1 486.44 214.02C486.58 213.94 486.693 213.837 486.78 213.71C486.867 213.583 486.93 213.447 486.97 213.3C487.01 213.147 487.03 213 487.03 212.86C487.03 212.46 486.933 212.157 486.74 211.95C486.547 211.737 486.24 211.63 485.82 211.63ZM485.97 210.67C486.383 210.67 486.733 210.73 487.02 210.85C487.313 210.963 487.55 211.12 487.73 211.32C487.91 211.52 488.04 211.753 488.12 212.02C488.207 212.28 488.25 212.553 488.25 212.84C488.25 213.1 488.203 213.367 488.11 213.64C488.023 213.913 487.883 214.163 487.69 214.39C487.503 214.61 487.267 214.793 486.98 214.94C486.693 215.08 486.353 215.15 485.96 215.15C485.167 215.15 484.56 214.89 484.14 214.37C483.727 213.843 483.52 213.12 483.52 212.2C483.52 211.533 483.617 210.943 483.81 210.43C484.01 209.91 484.29 209.473 484.65 209.12C485.017 208.767 485.457 208.5 485.97 208.32C486.49 208.133 487.073 208.037 487.72 208.03L487.79 209.03C487.43 209.037 487.093 209.077 486.78 209.15C486.467 209.217 486.187 209.323 485.94 209.47C485.693 209.617 485.48 209.807 485.3 210.04C485.127 210.273 484.993 210.56 484.9 210.9C485.227 210.747 485.583 210.67 485.97 210.67Z" fill="#025C75"/>
<path d="M129.528 209.56C129.368 209.753 129.202 209.96 129.028 210.18C128.862 210.4 128.698 210.63 128.538 210.87C128.378 211.11 128.225 211.357 128.078 211.61C127.932 211.857 127.798 212.103 127.678 212.35H129.528V209.56ZM130.708 208.07V212.35H131.488V213.34H130.708V215H129.528V213.34H126.488V212.48C126.622 212.187 126.798 211.85 127.018 211.47C127.245 211.09 127.495 210.7 127.768 210.3C128.042 209.9 128.332 209.507 128.638 209.12C128.945 208.733 129.252 208.383 129.558 208.07H130.708Z" fill="#025C75"/>
<path d="M41 179L100 129H159L218 104H277L336 117L395 80L454 30" stroke="#025C75" stroke-width="3" stroke-linecap="round" stroke-linejoin="round"/>
</svg>
